<svg xmlns="http://www.w3.org/2000/svg" viewBox="0 0 1290 470">
	<g transform="translate(181 -248) scale(.89814)" font-size="28" font-family="Arial">
		<text text-anchor="middle">
			<tspan x="362" y="426" font-size="32">Transmission lines</tspan><tspan x="358" y="455">765, 500, 345, 230, and 138 kV</tspan>
			<tspan x="357" y="705">Transmission Customer</tspan><tspan x="357" y="733">138 kV or 230 kV</tspan>
			<tspan x="-57" y="528">Generating Station</tspan>
			<tspan x="100" y="724">Generating</tspan><tspan x="100" y="752">Step Up</tspan><tspan x="100" y="780">Transformer</tspan>
			<tspan x="676" y="320">Substation</tspan><tspan x="676" y="348">Step Down</tspan><tspan x="676" y="376">Transformer</tspan>
			<tspan x="1056" y="358">Subtransmission</tspan><tspan x="1056" y="386">Customer</tspan><tspan x="1056" y="414">26 kV and 69 kV</tspan>
			<tspan x="1063" y="545">Primary Customer</tspan><tspan x="1063" y="573">13 kV and 4 kV</tspan>
			<tspan x="1073" y="700">Secondary Customer</tspan><tspan x="1072" y="727">120 V and 240 V</tspan>
		</text>

		<rect width="275" height="160" x="-182.5" y="297.86" fill="#fff" stroke="#121318" stroke-width="2"/>
		<text x="-177.5" y="322.862" fill="#050c07">
			<tspan x="-177.5" y="322.862">Color Key:</tspan>
		</text>
		<text x="-177.5" y="357.862" fill="#d40000">
			<tspan x="-177.5" y="357.862">Red:</tspan>
			<tspan x="-82.5" y="357.862">Generation</tspan>
		</text>
		<text x="-177.5" y="387.862" fill="#2936cb">
			<tspan x="-177.5" y="387.862">Blue:</tspan>
			<tspan x="-82.5" y="387.862">Transmission</tspan>
		</text>
		<text x="-177.5" y="417.862" fill="#06971d">
			<tspan x="-177.5" y="417.862">Green:</tspan>
			<tspan x="-82.5" y="417.862">Distribution</tspan>
		</text>
		<text x="-177.5" y="447.862" fill="#050c07">
			<tspan x="-177.5" y="447.862">Black:</tspan>
			<tspan x="-82.5" y="447.862">Customer</tspan>
		</text>
	</g>
	<path fill="#0e5ba9" d="M611.335 169.901l-12.127 14.078v57.002h.143l-16.747 105.632 2.112 2.112 28.281-27.255 28.33 25.722 3.37-.57-16.768-105.848V183.98l-13.703-14.054zm1.446 3.254l11.687 11.797v54.28h-21.8v-54.536zm-7.082 69.535h15.851l-7.951 8zm19.398 1.48l3.426 21.633-12.43-12.586zm-22.88.018l8.894 9.008-12.278 12.354zm11.386 11.531l12.426 12.58H601.08zm-13.58 16.04h26.68l-13.262 15.593zm29.717 1.728l3.326 20.992 3.04 19.211-20.398-23.703zm-32.284.758l13.653 15.85-19.864 23.353zm15.922 18.484l21.537 25H592.12zm-21.398 28.502h16.357l-9.29 8.953zm25.81 0h15.926l-8.808 6.48zm19.723 1.336l3.076 19.426-13.174-11.996zm-47.902 1.201l6.955 8.809-9.856 9.496zM382.39 169.901l-12.126 14.078v57.002h.142L353.66 346.613l2.111 2.112 28.282-27.255 28.329 25.722 3.37-.57-16.768-105.848V183.98l-13.703-14.054zm1.446 3.254l11.687 11.797v54.28h-21.8v-54.536zm-7.082 69.535h15.851l-7.95 8zm19.398 1.48l3.426 21.633-12.43-12.586zm-22.88.018l8.894 9.008-12.277 12.354zm11.386 11.531l12.426 12.58h-24.947zm-13.58 16.04h26.68l-13.262 15.593zm29.717 1.728l3.326 20.992 3.041 19.211-20.398-23.703zm-32.283.758l13.652 15.85-19.863 23.353zm15.922 18.484l21.537 25h-42.797zm-21.399 28.502h16.357l-9.29 8.953zm25.81 0h15.926l-8.808 6.48zm19.723 1.336l3.076 19.426-13.173-11.996zm-47.902 1.201l6.955 8.809-9.855 9.496z"/>
	<path fill="none" stroke="#0e5ba9" stroke-width="2" d="M296.477 263.973l39.09-79.365h378.661V94.582h42.25l15.596 17.176"/>
	<path fill="none" stroke="#0e5ba9" stroke-width="2" d="M296.477 263.973l39.09-63.176h395.64V111.56l40.867.197"/>
	<path fill="none" stroke="#0e5ba9" stroke-width="2" d="M296.477 263.973l39.09-46.988h412.224v-89.63h8.686l15.597-15.597"/>
	<path fill="none" stroke="#0e5ba9" stroke-width="2" d="M494.432 327.135v-103.27c8.583 0 8.129-13.524 0-13.524v-4.022c8.186 0 8.33-12.02 0-12.02v-9.685M478.04 327.135V223.872c8.135 0 8.156-13.535 0-13.535v-9.597m-16.224 16.57v104.043"/>
	<path fill="#fff" stroke="#292526" stroke-width="2" d="M533.456 268.284h8.077l.031 79.559-16.995.008-2.125-19.154h-13.878l-1.75 19.154-52.874-.11-.122-22.789 11.871-8.775 11.871 8.77 11.871-8.75 11.87 8.758-.157-56.677h8.078l.132 46.955h8.052l-.107-46.954 8.078.003.081 46.954 8.052.002z"/>
	<g stroke="#009f50" stroke-width="2">
		<path fill="none" d="M780.183 143h38.175v48.508h-38.175zm-3.24 50.37h42.817m-42.816 1.861h42.816m-43.386-53.5h44.348m-54.07 9.15h12.564v39.097h-12.564zm10.052-.004v39.113m-2.513-39.11v39.104m-2.513-39.105v39.107m-2.513-39.106v39.104m50.157-39.497h12.522v39.097h-12.522zm10.018.062v39.062m-2.504-39.102v39.088m-2.505-39.076v39.08m-2.504-39.092v39.088m-44.669-49.222h42.775m-38.92-.57l-8.886-29.466 17.378 29.467m26.575 0l8.667-29.553-18.295 29.553m-29.114-2.495h13.31m15.624 0h13.313m-43.036-4.236h12.564m-13.878-4.236h11.556m-13.13-4.236h10.813m-12.127-4.236h9.236m26.616 12.61h12.523m-10.198-4.335h11.556m-8.889-4.335h10.814m-8.492-4.335h9.234"/>
		<path fill="none" d="M932.32 248.018h-33.057m.082 97.103V94.582H841.54l-15.596 17.176m73.401-17.176h36.594"/>
		<path fill="none" d="M933.027 264.635h-27.444c0-6.964-12.264-7.207-12.264 0h-10.85m-.102 98.686v-251.76l-56.424.197m56.424-.197l10.82.034c0-5.779 12.063-6.317 12.063-.008l30.649-.017"/>
		<path fill="none" d="M932.32 281.252h-26.605c0-7.619-12.374-7.38-12.374 0h-5.038c0-7.898-12.198-7.495-12.198 0H865.5m.284 98.518V127.355H841.54l-15.597-15.597m39.84 15.597h9.967c0-6.2 12.875-6.612 12.875 0h4.568c0-6.659 12.592-6.432 12.592 0h30.154"/>
		<path fill="none" d="M882.54 340.058c8.386.372 10.74 23.298 10.74 35.255"/>
		<path fill="#fff" d="M879.315 367.37l6.385-8.962v87.218h-6.398z"/>
		<path fill="#fff" d="M856.741 385.703l51.365-51.015v6.304l-51.364 51.365z"/>
		<path fill="#fff" d="M885.46 375.605h13.774v32.803H885.46zM895.995 376.364v31.578m-3.648-31.578v31.578m-3.648-31.578v31.578M899.468 402.747l25.682-4.553m-25.565-4.436l25.565 4.32m-26.032-17.161l26.032 17.044"/>
	</g>
	<g stroke="#000" stroke-width="2">
		<path fill="#fff" d="M1006.984 370.994v-14.009h6.77v14.943"/>
		<path fill="#fff" d="M925.5 367.258h92.224v59.07H925.5z"/>
		<path fill="#fff" d="M930.637 403.914h27.317v11.207h-27.317zM984.804 403.914h27.317v11.207h-27.317zM966.593 403.914h9.573v22.18h-9.573zM925.5 394.575h92.224"/>
		<path fill="none" d="M934.415 381.888l10.153-8.503 10.153 7.925m37.787-2.378h12.14v8.172h-12.14zm-53.933 0h12.14v8.172h-12.14z"/>
		<path fill="none" d="M988.235 381.888l10.153-8.503 10.154 7.925"/>
	</g>
	<g>
		<path fill="#fff" stroke="#292526" stroke-width="2" d="M1023.843 288.815l-.01-75.173h-21.29v25.984l-70.007-.003v49.19z"/>
		<path fill="#292526" stroke="#292526" stroke-width="2" d="M980.872 190.394h8.097v48.699h-8.097z"/>
		<path fill="#3f59a6" d="M941.952 248.886h6.13v5.561h-6.13z"/>
		<path fill="none" stroke="#292526" stroke-width="2" d="M941.952 248.886h6.13v5.561h-6.13z"/>
		<path fill="#3f59a6" d="M972.377 248.886h6.175v5.561h-6.175z"/>
		<path fill="none" stroke="#292526" stroke-width="2" d="M972.377 248.886h6.175v5.561h-6.175z"/>
		<path fill="#3f59a6" d="M988.58 248.886h6.17v5.561h-6.17z"/>
		<path fill="none" stroke="#292526" stroke-width="2" d="M988.58 248.886h6.17v5.561h-6.17z"/>
		<path fill="#3f59a6" d="M1003.42 248.886h6.171v5.561h-6.172z"/>
		<path fill="none" stroke="#292526" stroke-width="2" d="M1003.42 248.886h6.171v5.561h-6.172z"/>
		<path fill="#3f59a6" d="M956.966 248.886h6.175v5.561h-6.175z"/>
		<path fill="none" stroke="#292526" stroke-width="2" d="M956.966 248.886h6.175v5.561h-6.175z"/>
	</g>
	<g>
		<path fill="#fff" stroke="#292526" stroke-width="2" d="M1023.843 134.914l-.01-75.173h-21.29v25.984l-70.007-.003v49.19z"/>
		<path fill="#292526" stroke="#292526" stroke-width="2" d="M980.872 36.493h8.097v48.699h-8.097z"/>
		<path fill="#3f59a6" d="M941.952 94.985h6.13v5.561h-6.13z"/>
		<path fill="none" stroke="#292526" stroke-width="2" d="M941.952 94.985h6.13v5.561h-6.13z"/>
		<path fill="#3f59a6" d="M972.377 94.985h6.175v5.561h-6.175z"/>
		<path fill="none" stroke="#292526" stroke-width="2" d="M972.377 94.985h6.175v5.561h-6.175z"/>
		<path fill="#3f59a6" d="M988.58 94.985h6.17v5.561h-6.17z"/>
		<path fill="none" stroke="#292526" stroke-width="2" d="M988.58 94.985h6.17v5.561h-6.17z"/>
		<path fill="#3f59a6" d="M1003.42 94.985h6.171v5.561h-6.172z"/>
		<path fill="none" stroke="#292526" stroke-width="2" d="M1003.42 94.985h6.171v5.561h-6.172z"/>
		<path fill="#3f59a6" d="M956.966 94.985h6.175v5.561h-6.175z"/>
		<path fill="none" stroke="#292526" stroke-width="2" d="M956.966 94.985h6.175v5.561h-6.175z"/>
	</g>
	<g fill="none" stroke="#d40000">
		<path stroke-width="4" d="M66.983 287.764h37.214v67.333H66.983zM104.23 324.886h53.025v29.64H104.23zm53.062 13.092h40.813v16.547h-40.813zM131.56 282.334c-.322 14.822-1.074 20.285-2.103 25.391-1.504 7.466-3.043 13.91-6.96 14.622m49.558 13.264c-8.31-.923-11.572-19.847-12.914-27.886-1.392-8.344-1.443-16.785-1.753-25.219"/>
		<path stroke-width="4" d="M107.37 334.068h47.75v6.985h-47.75z"/>
		<path stroke-width="3" d="M129.419 284.014v-10.75h30.085v10.766M67.37 294.84h36.592M67.37 301.575h36.592M67.37 308.31h36.592M67.37 315.046h36.592M67.37 321.781h36.592M67.37 328.516h36.592M36.691 355.39l6.625-100.5h8.375l6.375 100.515"/>
		<path stroke-width="4" d="M66.129 354.557H33.44"/>
		<path stroke-width="3" d="M56.188 326.041l10.629 10.629M56.689 336.443l10.128 10.128M146.22 273.208l-14.75 14.75M159.512 276.494l-30.17 30.17M157.645 294.94l-29.871 29.87M159.512 309.651l-14.824 14.824"/>
		<path stroke-width="2" d="M242.732 265.849l-8.309 16.44h-25.632L161.614 320.8"/>
		<path stroke-width="2" d="M242.732 265.849H208.79l-47.436 53.728"/>
		<path stroke-width="2" d="M242.732 265.849l-8.309-16.087h-25.632l-47.572 68.607"/>
		<path stroke-miterlimit="5" stroke-width="2" d="M250.183 297.875h38.175v48.508h-38.175zm-3.24 50.37h42.817m-42.816 1.861h42.816m-43.386-53.5h44.348m-54.07 9.15h12.564v39.097h-12.564zm10.052-.004v39.113m-2.513-39.11v39.104m-2.513-39.105v39.107m-2.513-39.106v39.104m50.157-39.497h12.522v39.097h-12.522zm10.018.062v39.062m-2.504-39.102v39.088m-2.505-39.076v39.08m-2.504-39.092v39.088m-44.669-49.222h42.775m-38.92-.57l-8.886-29.466 17.378 29.467m26.575 0l8.667-29.553-18.295 29.553m-29.114-2.495h13.31m15.624 0h13.313m-43.036-4.236h12.564m-13.878-4.236h11.556m-13.13-4.236h10.813m-12.127-4.236h9.236m26.616 12.61h12.523m-10.198-4.335h11.556m-8.889-4.335h10.814m-8.492-4.335h9.234"/>
	</g>
</svg>
